HIERARCHY
ROOT hip
{
  OFFSET 0 0 0
  CHANNELS 6 Xposition Yposition Zposition Zrotation Yrotation Xrotation
  JOINT abdomen
  {
    OFFSET 0 20.6881 -0.73152
    CHANNELS 3 Zrotation Xrotation Yrotation
    JOINT chest
    {
      OFFSET 0 11.7043 -0.48768
      CHANNELS 3 Zrotation Xrotation Yrotation
      JOINT neck
      {
        OFFSET 0 22.1894 -2.19456
        CHANNELS 3 Zrotation Xrotation Yrotation
        JOINT head
        {
          OFFSET -0.24384 7.07133 1.2192
          CHANNELS 3 Zrotation Xrotation Yrotation
          JOINT leftEye
          {
            OFFSET 4.14528 8.04674 8.04672
            CHANNELS 3 Zrotation Xrotation Yrotation
            End Site
            {
              OFFSET 1 0 0
            }
          }
          JOINT rightEye
          {
            OFFSET -3.6576 8.04674 8.04672
            CHANNELS 3 Zrotation Xrotation Yrotation
            End Site
            {
              OFFSET 1 0 0
            }
          }
        }
      }
      JOINT rCollar
      {
        OFFSET -2.68224 19.2634 -4.8768
        CHANNELS 3 Zrotation Xrotation Yrotation
        JOINT rShldr
        {
          OFFSET -8.77824 -1.95073 1.46304
          CHANNELS 3 Zrotation Xrotation Yrotation
          JOINT rForeArm
          {
            OFFSET -28.1742 -1.7115 0.48768
            CHANNELS 3 Zrotation Xrotation Yrotation
            JOINT rHand
            {
              OFFSET -22.5879 0.773209 7.07136
              CHANNELS 3 Zrotation Xrotation Yrotation
              JOINT rThumb1
              {
                OFFSET -1.2192 -0.487915 3.41376
                CHANNELS 3 Zrotation Xrotation Yrotation
                JOINT rThumb2
                {
                  OFFSET -3.37035 -0.52449 3.41376
                  CHANNELS 3 Zrotation Xrotation Yrotation
                  End Site
                  {
                    OFFSET -1.78271 -1.18214 1.43049
                  }
                }
              }
              JOINT rIndex1
              {
                OFFSET -7.75947 0.938293 5.60832
                CHANNELS 3 Zrotation Xrotation Yrotation
                JOINT rIndex2
                {
                  OFFSET -2.54057 -0.884171 1.56538
                  CHANNELS 3 Zrotation Xrotation Yrotation
                  End Site
                  {
                    OFFSET -1.62519 -0.234802 1.16502
                  }
                }
              }
              JOINT rMid1
              {
                OFFSET -8.24714 1.18213 3.41376
                CHANNELS 3 Zrotation Xrotation Yrotation
                JOINT rMid2
                {
                  OFFSET -3.10165 -0.590103 1.0647
                  CHANNELS 3 Zrotation Xrotation Yrotation
                  End Site
                  {
                    OFFSET -2.48547 -0.328903 0.83742
                  }
                }
              }
              JOINT rRing1
              {
                OFFSET -8.82822 0.546677 1.51678
                CHANNELS 3 Zrotation Xrotation Yrotation
                JOINT rRing2
                {
                  OFFSET -2.60934 -0.819778 -0.0198488
                  CHANNELS 3 Zrotation Xrotation Yrotation
                  End Site
                  {
                    OFFSET -2.33842 -0.294052 0.168128
                  }
                }
              }
              JOINT rPinky1
              {
                OFFSET -8.27202 -0.0477905 -0.4584
                CHANNELS 3 Zrotation Xrotation Yrotation
                JOINT rPinky2
                {
                  OFFSET -1.82734 -0.647385 -0.700984
                  CHANNELS 3 Zrotation Xrotation Yrotation
                  End Site
                  {
                    OFFSET -1.69225 -0.51767 -0.607171
                  }
                }
              }
            }
          }
        }
      }
      JOINT lCollar
      {
        OFFSET 2.68224 19.2634 -4.8768
        CHANNELS 3 Zrotation Xrotation Yrotation
        JOINT lShldr
        {
          OFFSET 8.77824 -1.95073 1.46304
          CHANNELS 3 Zrotation Xrotation Yrotation
          JOINT lForeArm
          {
            OFFSET 28.1742 -1.7115 0.48768
            CHANNELS 3 Zrotation Xrotation Yrotation
            JOINT lHand
            {
              OFFSET 22.5879 0.773209 7.07136
              CHANNELS 3 Zrotation Xrotation Yrotation
              JOINT lThumb1
              {
                OFFSET 1.2192 -0.487915 3.41376
                CHANNELS 3 Zrotation Xrotation Yrotation
                JOINT lThumb2
                {
                  OFFSET 3.37035 -0.52449 3.41376
                  CHANNELS 3 Zrotation Xrotation Yrotation
                  End Site
                  {
                    OFFSET 1.78271 -1.18214 1.43049
                  }
                }
              }
              JOINT lIndex1
              {
                OFFSET 7.75947 0.938293 5.60832
                CHANNELS 3 Zrotation Xrotation Yrotation
                JOINT lIndex2
                {
                  OFFSET 2.54057 -0.884171 1.56538
                  CHANNELS 3 Zrotation Xrotation Yrotation
                  End Site
                  {
                    OFFSET 1.62519 -0.234802 1.16502
                  }
                }
              }
              JOINT lMid1
              {
                OFFSET 8.24714 1.18213 3.41376
                CHANNELS 3 Zrotation Xrotation Yrotation
                JOINT lMid2
                {
                  OFFSET 3.10165 -0.590103 1.0647
                  CHANNELS 3 Zrotation Xrotation Yrotation
                  End Site
                  {
                    OFFSET 2.48547 -0.328903 0.83742
                  }
                }
              }
              JOINT lRing1
              {
                OFFSET 8.82822 0.546677 1.51678
                CHANNELS 3 Zrotation Xrotation Yrotation
                JOINT lRing2
                {
                  OFFSET 2.60934 -0.819778 -0.0198488
                  CHANNELS 3 Zrotation Xrotation Yrotation
                  End Site
                  {
                    OFFSET 2.33842 -0.294052 0.168128
                  }
                }
              }
              JOINT lPinky1
              {
                OFFSET 8.27202 -0.0477905 -0.4584
                CHANNELS 3 Zrotation Xrotation Yrotation
                JOINT lPinky2
                {
                  OFFSET 1.82734 -0.647385 -0.700984
                  CHANNELS 3 Zrotation Xrotation Yrotation
                  End Site
                  {
                    OFFSET 1.69225 -0.51767 -0.607171
                  }
                }
              }
            }
          }
        }
      }
    }
  }
  JOINT rButtock
  {
    OFFSET -8.77824 4.35084 1.2192
    CHANNELS 3 Zrotation Xrotation Yrotation
    JOINT rThigh
    {
      OFFSET 0 -1.70687 -2.19456
      CHANNELS 3 Zrotation Xrotation Yrotation
      JOINT rShin
      {
        OFFSET 0 -36.8199 0.73152
        CHANNELS 3 Zrotation Xrotation Yrotation
        JOINT rFoot
        {
          OFFSET 0.73152 -45.1104 -5.12064
          CHANNELS 3 Zrotation Xrotation Yrotation
          End Site
          {
            OFFSET -1.1221 -3.69964 12.103
          }
        }
      }
    }
  }
  JOINT lButtock
  {
    OFFSET 8.77824 4.35084 1.2192
    CHANNELS 3 Zrotation Xrotation Yrotation
    JOINT lThigh
    {
      OFFSET 0 -1.70687 -2.19456
      CHANNELS 3 Zrotation Xrotation Yrotation
      JOINT lShin
      {
        OFFSET 0 -36.8199 0.73152
        CHANNELS 3 Zrotation Xrotation Yrotation
        JOINT lFoot
        {
          OFFSET -0.73152 -45.1104 -5.12064
          CHANNELS 3 Zrotation Xrotation Yrotation
          End Site
          {
            OFFSET 1.1221 -3.69964 12.103
          }
        }
      }
    }
  }
}
MOTION
Frames:	4
Frame Time:	0.00833333
-7.81298 83.9785 26.0593 -5.5133 45.8985 2.4988 -2.13204 3.25744 -0.58669 0.691539 -2.33476 -0.140896 2.96932 -6.08227 3.02688 -3.24564 31.4605 7.34842 -0.0 0.0 0.0 -0.0 0.0 0.0 -9.64207e-14 8.56679e-14 -2.11575e-13 46.8481 4.19025 -3.41888 -24.7121 -48.4191 100.945 -5.45786 -53.2143 -10.8484 1.09788e-09 2.90786e-09 -7.82414e-10 1.91841e-09 5.04823e-09 -1.28565e-09 1.09788e-09 2.90785e-09 -7.82424e-10 7.73091 5.47488 0.417314 1.09788e-09 2.90786e-09 -7.82412e-10 2.90554 0.965183 0.102902 1.09788e-09 2.90786e-09 -7.82411e-10 10.2786 0.731801 0.0259123 1.09787e-09 2.90786e-09 -7.82405e-10 2.22167 -0.733487 -0.20892 -9.64285e-14 8.56722e-14 -2.11858e-13 -34.6151 24.5745 -43.0922 28.1358 -39.6311 -83.2605 1.63397 -33.7341 5.38523 -3.08827e-10 3.79957e-10 -6.74304e-11 -5.34094e-10 6.6692e-10 -1.2133e-10 -3.08831e-10 3.79955e-10 -6.74232e-11 -7.73091 5.47488 -0.417314 -3.08827e-10 3.79931e-10 -6.74302e-11 -2.90554 0.965183 -0.102902 -3.08832e-10 3.79954e-10 -6.74297e-11 -10.2786 0.731801 -0.0259123 -3.08817e-10 3.79957e-10 -6.74327e-11 -2.22167 -0.733487 0.20892 -2.03217e-16 0.0 -3.88251e-19 0.594562 -19.7187 13.9713 -0.0281093 14.4067 0.111459 -0.618462 -0.166808 -2.71584 2.03217e-16 0.0 3.88251e-19 2.69916 -17.9253 -5.29951 0.118676 21.6847 -0.395464 4.72454 -9.14633 16.4997
-7.99785 84.0387 25.8443 -5.8344 44.7246 2.2624 -2.15886 3.19823 -0.738297 0.834017 -2.18071 -0.181812 2.76536 -6.05186 2.96649 -3.02265 31.5801 7.21585 -0.0 0.0 0.0 -0.0 0.0 0.0 -1.65685e-13 3.0152e-13 -3.57524e-13 45.8713 4.00388 -3.89585 -24.7453 -48.372 100.832 -5.6841 -53.9384 -11.1346 2.05212e-09 4.59181e-09 -9.50542e-10 3.57064e-09 7.94951e-09 -1.53621e-09 2.05212e-09 4.59181e-09 -9.50553e-10 7.73091 5.47488 0.417314 2.05212e-09 4.59181e-09 -9.50543e-10 2.90554 0.965183 0.102902 2.05213e-09 4.59181e-09 -9.5054e-10 10.2786 0.731801 0.0259123 2.05212e-09 4.59181e-09 -9.50534e-10 2.22167 -0.733487 -0.20892 -1.65705e-13 3.01528e-13 -3.57755e-13 -34.1935 24.6084 -44.0448 28.1785 -39.3356 -82.7422 1.68501 -34.1777 5.47636 -2.53015e-10 5.65403e-10 -1.09749e-10 -4.39851e-10 9.80364e-10 -1.89092e-10 -2.53017e-10 5.65403e-10 -1.09745e-10 -7.73091 5.47488 -0.417314 -2.53016e-10 5.65375e-10 -1.09749e-10 -2.90554 0.965183 -0.102902 -2.53021e-10 5.65403e-10 -1.09751e-10 -10.2786 0.731801 -0.0259123 -2.53009e-10 5.65406e-10 -1.09754e-10 -2.22167 -0.733487 0.20892 -2.03217e-16 0.0 -3.88251e-19 1.03008 -19.7917 15.1326 -0.0294453 13.8226 0.0969589 -0.596776 0.178068 -2.70765 2.03217e-16 0.0 3.88251e-19 3.04258 -17.9981 -4.81815 0.120198 21.7262 -0.400426 4.93334 -9.26654 17.0765
-8.20986 84.0813 25.6283 -6.0707 43.5429 2.1715 -2.15409 3.14693 -0.882916 0.889758 -2.04681 -0.222237 2.68273 -6.06442 2.94811 -2.90958 31.7281 7.15107 -0.0 0.0 0.0 -0.0 0.0 0.0 -2.1448e-13 4.36228e-13 -3.08414e-13 44.9968 3.6362 -4.35696 -24.7351 -48.3894 100.868 -5.97778 -54.8179 -11.4996 1.91475e-09 4.03715e-09 -7.62652e-10 3.32848e-09 6.97789e-09 -1.22586e-09 1.91475e-09 4.03715e-09 -7.62665e-10 7.73091 5.47488 0.417314 1.91475e-09 4.03715e-09 -7.62656e-10 2.90554 0.965183 0.102902 1.91476e-09 4.03715e-09 -7.62652e-10 10.2786 0.731801 0.0259123 1.91475e-09 4.03715e-09 -7.62646e-10 2.22167 -0.733487 -0.20892 -2.14511e-13 4.36238e-13 -3.08613e-13 -33.7079 24.6366 -44.9373 28.2211 -39.0266 -82.1944 1.74321 -34.6765 5.57968 -2.52813e-10 8.12714e-10 -1.77208e-10 -4.38837e-10 1.40309e-09 -3.04074e-10 -2.52814e-10 8.12716e-10 -1.77205e-10 -7.73091 5.47488 -0.417314 -2.52814e-10 8.12687e-10 -1.77208e-10 -2.90554 0.965183 -0.102902 -2.5282e-10 8.12716e-10 -1.77211e-10 -10.2786 0.731801 -0.0259123 -2.52809e-10 8.12718e-10 -1.77214e-10 -2.22167 -0.733487 0.20892 -2.03217e-16 0.0 -3.88251e-19 1.45501 -19.9404 15.802 -0.0305987 13.3939 0.0864978 -0.581035 0.325003 -2.58689 2.03217e-16 0.0 3.88251e-19 3.36576 -18.1089 -4.38685 0.121471 21.8036 -0.406764 5.14971 -9.37527 17.6855
-8.45804 84.0975 25.3961 -6.2786 42.3766 2.1743 -2.06913 3.08714 -1.01748 0.781404 -1.924 -0.262289 2.78971 -6.14622 2.98775 -2.95409 31.9208 7.17267 -0.0 0.0 0.0 -0.0 0.0 0.0 -2.40586e-13 4.6099e-13 1.10833e-13 44.2855 3.06408 -4.79648 -24.6616 -48.4987 101.119 -6.42181 -56.0384 -12.0403 -2.2252e-10 -6.75058e-10 1.09057e-10 -3.85079e-10 -1.19079e-09 1.64919e-10 -2.22519e-10 -6.75049e-10 1.09044e-10 7.73091 5.47488 0.417314 -2.22523e-10 -6.75054e-10 1.09054e-10 2.90554 0.965183 0.102902 -2.22512e-10 -6.75054e-10 1.09059e-10 10.2786 0.731801 0.0259123 -2.22522e-10 -6.75052e-10 1.09064e-10 2.22167 -0.733487 -0.20892 -2.40635e-13 4.61001e-13 1.10632e-13 -33.1197 24.6418 -45.7597 28.2621 -38.7017 -81.6206 1.82966 -35.4008 5.73156 -3.54771e-10 1.22903e-09 -3.0679e-10 -6.09065e-10 2.1211e-09 -5.3286e-10 -3.54772e-10 1.22903e-09 -3.06785e-10 -7.73091 5.47488 -0.417314 -3.54771e-10 1.229e-09 -3.06789e-10 -2.90554 0.965183 -0.102902 -3.54778e-10 1.22903e-09 -3.06792e-10 -10.2786 0.731801 -0.0259123 -3.54768e-10 1.22903e-09 -3.06796e-10 -2.22167 -0.733487 0.20892 -2.03217e-16 0.0 -3.88251e-19 1.89185 -20.2218 15.7998 -0.0314381 13.11 0.0799768 -0.567396 0.228834 -2.22123 2.03217e-16 0.0 3.88251e-19 3.6966 -18.2949 -4.00419 0.122799 21.9418 -0.414587 5.3742 -9.46375 18.3347
